<svg xmlns="http://www.w3.org/2000/svg" xmlns:xlink="http://www.w3.org/1999/xlink" width="1000" zoomAndPan="magnify" viewBox="0 0 750 614.249986" height="819" preserveAspectRatio="xMidYMid meet" version="1.0"><path fill="#3d3a37" d="M 499.464844 121.234375 L 499.464844 189.648438 C 499.464844 193.644531 496.222656 196.886719 492.226562 196.886719 L 243.4375 196.886719 C 243.226562 196.886719 236.175781 197 235.972656 197 C 225.382812 197 197.582031 203.839844 197.582031 238.089844 C 197.582031 278.476562 235.65625 276.925781 240.703125 276.945312 C 242.339844 276.945312 248.558594 276.945312 249.859375 276.945312 L 329.992188 276.945312 C 330.964844 276.945312 331.757812 277.738281 331.757812 278.710938 L 331.757812 300.019531 C 331.757812 300.492188 331.941406 300.9375 332.277344 301.273438 L 359.109375 328.105469 C 359.8125 328.804688 359.796875 329.953125 359.078125 330.636719 L 325.371094 362.601562 C 324.578125 363.355469 323.300781 363.207031 322.6875 362.296875 C 317.769531 354.988281 302.527344 337.242188 285.570312 330.382812 C 274.230469 326.296875 259.417969 327.4375 250.355469 327.4375 L 136.347656 327.4375 C 127.253906 327.4375 119.875 320.066406 119.875 310.964844 L 119.875 207.898438 C 119.875 207.789062 119.882812 207.6875 119.90625 207.578125 C 121.636719 198.285156 128.554688 167.75 156.597656 143.652344 C 187.636719 116.972656 222.933594 116.769531 231.484375 116.957031 C 275.644531 116.652344 319.796875 116.503906 495.1875 116.941406 C 497.558594 116.941406 499.472656 118.871094 499.472656 121.234375 Z M 499.464844 121.234375 " fill-opacity="1" fill-rule="nonzero"/><path fill="#3d3a37" d="M 355.550781 204.003906 L 399.527344 204.003906 C 401.058594 204.003906 402.292969 205.246094 402.292969 206.769531 L 402.292969 284.261719 C 402.292969 286.054688 401.605469 287.78125 400.371094 289.085938 L 370.480469 320.636719 C 369.921875 321.222656 368.992188 321.238281 368.421875 320.667969 L 344.707031 297.179688 L 344.707031 277.632812 C 346.160156 276.535156 348.050781 274.867188 349.835938 272.480469 C 351.976562 269.605469 353.132812 266.113281 353.140625 262.523438 C 353.152344 253.839844 353.101562 238.953125 352.8125 206.78125 C 352.800781 205.257812 354.03125 204.003906 355.558594 204.003906 Z M 355.550781 204.003906 " fill-opacity="1" fill-rule="nonzero"/><path fill="#c25a2c" d="M 381.957031 330.785156 L 420.628906 369.457031 C 421.746094 370.574219 423.542969 370.59375 424.691406 369.507812 L 464.152344 331.929688 C 464.203125 331.882812 464.25 331.84375 464.300781 331.800781 C 467.941406 328.800781 478.777344 318.941406 487.558594 316.101562 C 495.90625 313.398438 499.410156 313.488281 504.816406 313.375 L 635.328125 313.375 C 636.933594 313.375 638.230469 312.074219 638.230469 310.46875 L 638.230469 247.355469 C 638.230469 245.75 636.933594 243.9375 635.328125 243.9375 L 511.359375 243.9375 C 502.441406 244.25 492.917969 245.289062 483.0625 247.789062 C 437.617188 259.289062 399.824219 307.132812 381.871094 326.785156 C 380.820312 327.933594 380.867188 329.699219 381.960938 330.796875 Z M 381.957031 330.785156 " fill-opacity="1" fill-rule="nonzero"/><path fill="#c25a2c" d="M 381.707031 426.289062 L 426.246094 381.753906 C 427.699219 380.308594 430.058594 380.363281 431.4375 381.875 L 454.34375 403.285156 L 454.40625 403.351562 C 454.40625 403.351562 467.328125 415.367188 479.027344 421.351562 C 489.585938 426.75 503.488281 428.046875 511.449219 428.03125 C 511.554688 428.03125 509.960938 428.019531 510.066406 428.019531 L 634.644531 428.03125 C 636.625 428.03125 638.230469 429.625 638.230469 431.605469 L 638.230469 498.488281 C 638.230469 500.464844 634.304688 502.070312 632.328125 502.070312 L 509.90625 502.070312 C 496.546875 501.667969 470.09375 499.683594 442.914062 483.246094 C 423.390625 471.445312 409.09375 459.261719 398.132812 449.378906 C 391.621094 442.472656 387.488281 437.976562 381.570312 431.320312 C 379.527344 429.011719 380.152344 427.835938 381.703125 426.277344 Z M 381.707031 426.289062 " fill-opacity="1" fill-rule="nonzero"/><path fill="#3d3a37" d="M 372.441406 339.804688 L 407.308594 375.105469 C 409.246094 377.070312 409.855469 380.859375 407.878906 382.792969 L 373.59375 418.902344 C 362.09375 430.402344 333.574219 465.707031 292.257812 465.707031 C 279.382812 465.707031 268.855469 466.191406 256.003906 466.191406 L 123.167969 466.191406 C 120.410156 466.191406 118.171875 463.953125 118.171875 461.195312 L 118.171875 397.628906 C 118.171875 394.871094 120.410156 392.632812 123.167969 392.632812 L 276.777344 392.632812 C 283.636719 392.484375 293.394531 391.9375 301.550781 390.941406 C 319.375 388.757812 349.835938 355.464844 365.328125 339.804688 C 367.289062 337.828125 370.476562 337.832031 372.433594 339.8125 Z M 372.441406 339.804688 " fill-opacity="1" fill-rule="nonzero"/></svg>