<?xml version="1.0" encoding="UTF-8"?>
<svg id="Layer_1" data-name="Layer 1" xmlns="http://www.w3.org/2000/svg" viewBox="0 0 1000 818.85">
  <defs>
    <style>
      .cls-1 {
        fill: #414042;
      }

      .cls-2 {
        fill: #eb6424;
      }
    </style>
  </defs>
  <path class="cls-1" d="M695.6,105.96v110.35c0,6.45-5.23,11.68-11.68,11.68h-401.29c-.34,0-11.71.18-12.04.18-17.08,0-61.92,11.03-61.92,66.28,0,65.14,61.41,62.64,69.55,62.67,2.64,0,12.67,0,14.77,0h129.25c1.57,0,2.85,1.28,2.85,2.85v34.37c0,.76.3,1.48.84,2.02l43.28,43.28c1.13,1.13,1.11,2.98-.05,4.08l-54.37,51.56c-1.28,1.22-3.34.98-4.33-.49-7.93-11.79-32.52-40.41-59.87-51.48-18.29-6.59-42.18-4.75-56.8-4.75H109.9c-14.67,0-26.57-11.89-26.57-26.57v-166.24c0-.18.01-.34.05-.52,2.79-14.99,13.95-64.24,59.18-103.11,50.07-43.03,107-43.36,120.79-43.06,71.23-.49,142.45-.73,425.35-.02,3.82,0,6.91,3.11,6.91,6.92Z"/>
  <path class="cls-1" d="M463.47,239.47h70.93c2.47,0,4.46,2,4.46,4.46v124.99c0,2.89-1.11,5.68-3.1,7.78l-48.21,50.89c-.9.95-2.4.97-3.32.05l-38.25-37.88v-31.53c2.34-1.77,5.39-4.46,8.27-8.31h0c3.45-4.64,5.32-10.27,5.33-16.06.02-14.01-.06-38.02-.53-89.91-.02-2.46,1.97-4.48,4.43-4.48Z"/>
  <path class="cls-2" d="M506.06,443.96l62.38,62.38c1.8,1.8,4.7,1.83,6.55.08l63.65-60.61c.08-.08.16-.14.24-.21,5.87-4.84,23.35-20.74,37.51-25.32,13.47-4.36,19.12-4.22,27.84-4.4h210.51c2.59,0,4.68-2.1,4.68-4.69v-101.8c0-2.59-2.09-5.51-4.68-5.51h-199.96c-14.38.5-29.74,2.18-45.64,6.21-73.3,18.55-134.26,95.72-163.22,127.42-1.69,1.85-1.62,4.7.15,6.47Z"/>
  <path class="cls-2" d="M505.66,598.01l71.84-71.84c2.34-2.33,6.15-2.24,8.37.2l36.95,34.53.1.11s20.84,19.38,39.71,29.03c17.03,8.71,39.46,10.8,52.3,10.78.17,0-2.4-.02-2.23-.02l200.94.02c3.19,0,5.78,2.57,5.78,5.76v107.88c0,3.19-6.33,5.78-9.52,5.78h-197.46c-21.55-.65-64.22-3.85-108.06-30.36-31.49-19.04-54.55-38.69-72.23-54.63-10.5-11.14-17.17-18.39-26.71-29.13-3.3-3.72-2.29-5.62.21-8.13Z"/>
  <path class="cls-1" d="M490.71,458.51l56.24,56.94c3.13,3.17,4.11,9.28.92,12.4l-55.3,58.24c-18.55,18.55-64.55,75.5-131.19,75.5-20.77,0-37.75.78-58.48.78H88.64c-4.45,0-8.06-3.61-8.06-8.06v-102.53c0-4.45,3.61-8.06,8.06-8.06h247.77c11.06-.24,26.8-1.12,39.96-2.73,28.75-3.52,77.88-57.22,102.87-82.48,3.16-3.19,8.3-3.18,11.46.01Z"/>
</svg>